<?xml version="1.0" encoding="utf-8"?>
<!-- Generator: Adobe Illustrator 25.0.0, SVG Export Plug-In . SVG Version: 6.00 Build 0)  -->
<svg version="1.1" id="Layer_1" xmlns="http://www.w3.org/2000/svg" xmlns:xlink="http://www.w3.org/1999/xlink" x="0px" y="0px"
	 viewBox="0 0 113 32" style="enable-background:new 0 0 113 32;" xml:space="preserve">
<style type="text/css">
	.st0{fill:#1F2021;}
	.st1{fill:#FFFFFF;}
	.st3{fill:#1F2021;}
</style>
<path class="st3" d="M9.5,11.8c-1.7,0-2.9,0.9-3.5,2.3v-7H1.2V24h4.2l0.1-2.7c0.6,1.7,2,2.9,4,2.9c3,0,4.7-2.3,4.7-6.2
	C14.3,14.1,12.5,11.8,9.5,11.8z M7.7,20.8c-1,0-1.6-0.8-1.7-2.5v-0.5c0-1.7,0.6-2.5,1.7-2.5c1.1,0,1.7,0.7,1.7,2.8
	S8.8,20.8,7.7,20.8z M21.1,7.1h-4.8v13.2c0,2.9,1.1,4,3.9,4c1,0,2.2-0.3,2.8-0.7l0.3-2.8c-0.4,0.1-0.6,0.2-1,0.2
	c-0.8,0-1.1-0.4-1.1-1.4V7.1z M36.9,12h-4.8l-1.5,6.4L30,21.2l-0.5-2.7L28.1,12h-5.3l3.5,9l1.5,3.4l-0.2,0.5
	c-0.3,0.7-0.8,0.9-1.8,0.9c-1.1,0-1.6-0.1-2.1-0.5l-0.9,3.1c0.8,0.5,2,0.8,3.5,0.8c3.5,0,5.3-1.6,6.7-5.9L36.9,12z M47.3,15.6h-9.1
	v3.8h9.1V15.6z M59.1,20.5c-0.5,0.3-0.9,0.4-1.6,0.4c-1,0-1.5-0.4-1.5-1.6v-4.1h3.3V12H56V8l-4.8,1.3V12h-1.9v3.3h1.9v4.8
	c0,3,1.7,4.1,4.8,4.1c1.2,0,2.7-0.3,3.5-0.9L59.1,20.5z M69.8,11.8c-1.8,0-3.1,0.9-3.8,2.6V7.1h-4.8V24H66v-6.3
	c0-1.6,0.7-2.3,1.6-2.3c0.8,0,1.2,0.4,1.2,1.8V24h4.8v-8.1C73.7,13.2,72.2,11.8,69.8,11.8z"/>
<path class="st1" d="M85,0h24c2.2,0,4,1.8,4,4v24c0,2.2-1.8,4-4,4H85c-2.2,0-4-1.8-4-4V4C81,1.8,82.8,0,85,0z"/>
<path class="st0" d="M91.7,19.2c0.4-0.6-0.1-1.4-0.8-1.5l0,0c-0.8-0.2-1.4,0.4-2.1,0.9c-0.2,0.2-0.6,0.2-1,0.2
	c-1.2,0-1.8-0.9-1.8-2.7c0-1.8,0.7-2.7,1.8-2.7c0.3,0,0.6,0,0.8,0.2c0.8,0.4,1.5,1.1,2.3,0.8l0,0c0.6-0.2,1-0.9,0.6-1.5
	c-0.7-1.2-2.2-1.8-3.8-1.8c-3,0-4.8,1.8-4.8,5s1.8,5,4.8,5C89.5,21,90.9,20.5,91.7,19.2z"/>
<path class="st0" d="M97.3,11c-2.8,0-4.3,1.4-4.3,3.2c0,1.7,1.1,2.6,3.8,3.1c1.3,0.2,1.7,0.4,1.7,0.8c0,0.4-0.4,0.7-1.3,0.7
	c-0.7,0-1.3-0.1-1.8-0.4c-0.7-0.3-1.6-0.3-2,0.3l0,0c-0.3,0.5-0.2,1.1,0.2,1.4c0.9,0.6,2,0.9,3.8,0.9c2.4,0,4.2-1.1,4.2-3.1
	c0-1.8-1.1-2.7-3.8-3.1C96.4,14.6,96,14.4,96,14c0-0.4,0.5-0.8,1.3-0.8c0.7,0,1.2,0.1,1.7,0.4c0.6,0.3,1.5,0.4,1.9-0.2l0,0
	c0.3-0.5,0.3-1.1-0.2-1.4C99.8,11.3,98.7,11,97.3,11z"/>
<path class="st0" d="M106.7,11c-2.8,0-4.3,1.4-4.3,3.2c0,1.7,1.1,2.6,3.8,3.1c1.3,0.2,1.7,0.4,1.7,0.8c0,0.4-0.4,0.7-1.3,0.7
	c-0.7,0-1.3-0.1-1.8-0.4c-0.7-0.3-1.6-0.3-2,0.3l0,0c-0.3,0.5-0.2,1.1,0.2,1.4c0.9,0.6,2,0.9,3.8,0.9c2.4,0,4.2-1.1,4.2-3.1
	c0-1.8-1.1-2.7-3.8-3.1c-1.3-0.2-1.7-0.4-1.7-0.8c0-0.4,0.5-0.8,1.3-0.8c0.7,0,1.2,0.1,1.7,0.4c0.6,0.3,1.5,0.4,1.9-0.2l0,0
	c0.3-0.5,0.3-1.1-0.2-1.4C109.2,11.3,108.1,11,106.7,11z"/>
</svg>
