<svg version="1.1" xmlns="http://www.w3.org/2000/svg" xmlns:xlink="http://www.w3.org/1999/xlink" x="0px" y="0px"
	 viewBox="0 0 521.2 111.8" style="enable-background:new 0 0 521.2 111.8;" xml:space="preserve">
	 <title>Blyth CSS</title>
<g>
	<path d="M0,0h23.5v33.2h0.3C26.4,26.6,32.6,21,42.3,21c13,0,25.6,9.9,25.6,33.6c0,22.7-11.8,33.6-25.7,33.6
		c-9.2,0-15.5-4.9-18.2-11.6h-0.5v10.7H0V0z M33.4,70.1c6.5,0,10.2-5.8,10.2-15.5S39.9,39,33.4,39C26.9,39,23,44.8,23,54.6
		C23,64.1,26.9,70.1,33.4,70.1z" fill="currentColor"/>
	<path d="M101.3,87.3H77.7V0h23.5V87.3z" fill="currentColor"/>
	<path d="M113.4,109.5l5.1-16.7c5.8,2,10.4,2.2,11.9-1.4l0.5-1.2l-23-68.4h24.5L143,67.2h0.7l10.7-45.3h24.7l-23.9,70.9
		c-3.6,10.8-11.3,19.1-27.8,19.1C122.1,111.8,117,111,113.4,109.5z" fill="currentColor"/>
	<path d="M224.8,38.9h-11.3v27.4c0,2.7,1.4,4.1,4.4,4.1c1.4,0,3.7-0.5,4.6-0.7l3.4,16.5c-2.1,0.6-6.1,1.7-11.4,2
		c-16.2,0.9-24.7-6.1-24.5-19.8V38.9h-8.4v-17h8.4V6.1h23.5v15.7h11.3V38.9z" fill="currentColor"/>
	<path d="M259.3,87.3h-23.5V0h22.7v34.3h0.7C262,25.9,269.2,21,278.9,21c13.9,0,22.9,10.2,22.8,24.5v41.8h-23.5V50.5
		c0-6.5-3.4-10.4-9.4-10.4c-5.8,0-9.5,3.9-9.5,10.4V87.3z" fill="currentColor"/>
	<path d="M310.9,54.7c0-20.1,12.6-33.8,33.9-33.8c19.3,0,31.4,11.1,31.5,28.1h-21.8c-0.6-6.9-4.2-10.6-9.4-10.6
		c-6.2,0-10.2,5.3-10.2,16s4,16,10.2,16c5.2,0,8.9-3.7,9.4-10.6h21.8c-0.3,17.3-12.1,28.5-31.5,28.5
		C323.5,88.5,310.9,74.8,310.9,54.7z" fill="currentColor"/>
	<path d="M424.3,43.1c-0.3-4-4.2-6.5-8.9-6.5c-4,0-7.4,1.5-7.3,4.3c-0.1,1.9,1.3,3.7,6.3,4.6l13.3,2.4c13.4,2.4,19.9,8.1,19.9,17.7
		c-0.1,14-13.4,22.8-31.5,22.8c-20,0-31.6-8.9-32.9-22.3h23.4c0.6,4.2,4.4,6.5,9.7,6.5c4.3,0,7.4-1.5,7.5-4.3
		c-0.1-2.5-2.4-3.8-7.5-4.8l-11.6-2c-13.3-2.3-20-8.9-19.9-19.3C384.6,28.6,396.2,21,414.9,21c18.9,0,30.4,8.3,31,22.2H424.3z" fill="currentColor"/>
	<path d="M494.8,43.1c-0.3-4-4.2-6.5-8.9-6.5c-4,0-7.4,1.5-7.3,4.3c-0.1,1.9,1.3,3.7,6.3,4.6l13.3,2.4c13.4,2.4,19.9,8.1,19.9,17.7
		c-0.1,14-13.4,22.8-31.5,22.8c-20,0-31.6-8.9-32.9-22.3h23.4c0.6,4.2,4.4,6.5,9.7,6.5c4.3,0,7.4-1.5,7.5-4.3
		c-0.1-2.5-2.4-3.8-7.5-4.8l-11.6-2c-13.3-2.3-20-8.9-19.9-19.3C455.2,28.6,466.7,21,485.5,21c18.9,0,30.4,8.3,31,22.2H494.8z" fill="currentColor" />
	<path d="M307.3,111.8V98.2h213.9v13.6H307.3z" fill="currentColor" />
</g>
</svg>
