<svg width="113" height="32" viewBox="0 0 113 32" fill="none" xmlns="http://www.w3.org/2000/svg">
<path d="M9.528 11.76C7.824 11.76 6.648 12.648 6.024 14.016V7.056H1.176V24H5.424L5.568 21.336C6.192 23.064 7.56 24.24 9.552 24.24C12.576 24.24 14.28 21.96 14.28 18.048C14.28 14.064 12.528 11.76 9.528 11.76ZM7.68 20.784C6.672 20.784 6.072 20.016 6.024 18.264V17.736C6.072 16.08 6.624 15.24 7.68 15.24C8.76 15.24 9.408 15.936 9.408 18C9.408 20.064 8.76 20.784 7.68 20.784ZM21.0703 7.056H16.2223V20.232C16.2223 23.088 17.3503 24.24 20.1343 24.24C21.1423 24.24 22.3183 23.952 22.8943 23.544L23.1583 20.784C22.7983 20.904 22.5343 20.952 22.1263 20.952C21.3343 20.952 21.0703 20.52 21.0703 19.512V7.056ZM36.8698 12H32.0938L30.5818 18.432L30.0058 21.168L29.5018 18.504L28.0618 12H22.7338L26.2378 20.952L27.7018 24.36L27.5338 24.816C27.2698 25.488 26.7658 25.704 25.7818 25.704C24.7018 25.704 24.1738 25.56 23.6698 25.2L22.7338 28.32C23.5738 28.848 24.7498 29.16 26.2378 29.16C29.7178 29.16 31.4938 27.6 32.9578 23.28L36.8698 12ZM47.2961 15.624H38.2001V19.416H47.2961V15.624ZM59.1113 20.544C58.6553 20.808 58.1753 20.952 57.5033 20.952C56.4953 20.952 55.9913 20.52 55.9913 19.392V15.336H59.2793V12H55.9913V8.04L51.1433 9.384V12H49.1993V15.336H51.1433V20.16C51.1433 23.136 52.8713 24.24 55.9433 24.24C57.1673 24.24 58.6313 23.904 59.4233 23.376L59.1113 20.544ZM69.7686 11.76C67.9926 11.76 66.6966 12.648 66.0006 14.328V7.056H61.1526V24H66.0006V17.688C66.0006 16.08 66.6726 15.384 67.6326 15.384C68.4006 15.384 68.8566 15.816 68.8566 17.184V24H73.7046V15.888C73.7046 13.224 72.1926 11.76 69.7686 11.76Z" fill="white"/>
<rect x="81" width="32" height="32" rx="4" fill="white"/>
<path d="M91.6816 19.1744C92.0576 18.5557 91.6147 17.8184 90.9159 17.6291V17.6291C90.1647 17.4255 89.4976 18.0684 88.8372 18.4802C88.5928 18.6325 88.2789 18.7059 87.8804 18.7059C86.6676 18.7059 86.0685 17.8088 86.0685 16C86.0685 14.1765 86.726 13.2941 87.9096 13.2941C88.2403 13.2941 88.5146 13.3386 88.7401 13.4577C89.4907 13.854 90.2427 14.554 91.0297 14.2363V14.2363C91.6394 13.9902 92.0077 13.3142 91.6631 12.7542C90.9176 11.5425 89.4766 11 87.8219 11C84.8411 11 83 12.8382 83 16C83 19.1618 84.8411 21 87.8365 21C89.5179 21 90.8998 20.4611 91.6816 19.1744Z" fill="#1F2021"/>
<path d="M97.2716 11C94.4808 11 92.9319 12.3529 92.9319 14.25C92.9319 15.9706 93.9986 16.8382 96.7018 17.3088C97.973 17.5441 98.3821 17.7353 98.3821 18.0882C98.3821 18.4853 98.0022 18.75 97.0525 18.75C96.352 18.75 95.7536 18.6384 95.2254 18.3758C94.5456 18.0378 93.6291 18.0488 93.2058 18.6789V18.6789C92.8901 19.149 92.9623 19.7949 93.4386 20.101C94.3405 20.6805 95.4396 21 97.2424 21C99.5949 21 101.451 19.9265 101.451 17.9412C101.451 16.1471 100.34 15.2647 97.6662 14.8235C96.3949 14.6029 96.015 14.3824 96.015 14.0147C96.015 13.5735 96.4972 13.2647 97.3447 13.2647C98.0009 13.2647 98.558 13.3883 99.0588 13.6597C99.6898 14.0017 100.531 14.0116 100.969 13.4431V13.4431C101.319 12.9888 101.283 12.3315 100.817 11.9964C99.8093 11.2703 98.7257 11 97.2716 11Z" fill="#1F2021"/>
<path d="M106.689 11C103.899 11 102.35 12.3529 102.35 14.25C102.35 15.9706 103.416 16.8382 106.12 17.3088C107.391 17.5441 107.8 17.7353 107.8 18.0882C107.8 18.4853 107.42 18.75 106.47 18.75C105.77 18.75 105.171 18.6384 104.643 18.3758C103.963 18.0378 103.047 18.0488 102.624 18.6789V18.6789C102.308 19.149 102.38 19.7949 102.856 20.101C103.758 20.6805 104.857 21 106.66 21C109.013 21 110.868 19.9265 110.868 17.9412C110.868 16.1471 109.758 15.2647 107.084 14.8235C105.813 14.6029 105.433 14.3824 105.433 14.0147C105.433 13.5735 105.915 13.2647 106.763 13.2647C107.419 13.2647 107.976 13.3883 108.477 13.6597C109.108 14.0017 109.949 14.0116 110.387 13.4431V13.4431C110.737 12.9888 110.701 12.3315 110.235 11.9964C109.227 11.2703 108.144 11 106.689 11Z" fill="#1F2021"/>
</svg>
